# xmcd
#
# Track frame offsets:
#	150
#	39308
#	51013
#	57135
#	63353
#	81958
#	95106
#	110425
#	121049
#	131931
#	140159
#	146504
#	161146
#	172883
#	186964
#	194845
#	216692
#	238209
#	240978
#	245347
#	257179
#	266455
#	276505
#	288478
#	303638
#	311203
#	319748
#	329478
#	336702
#
# Disc length: 4560 seconds
# Revision: 0
# Processed by: cddbd v1.5.2PL0 Copyright (c) Steve Scherf et al.
# Submitted via: dBpowerAMP V12.0
#
DISCID=dc11ce1d
DTITLE=Andrew Liles - The Flesh Creeping Gonzoid and Other Imaginary Creatures-Volume 4
DYEAR=2011
DGENRE=Industrial
TTITLE0=Wolf Teeth
TTITLE1=Leader Of The pack
TTITLE2=Auto Outtake 5
TTITLE3=Yes Dear And No Thanks
TTITLE4=The Relentlessly Banal Landscape
TTITLE5=Benediction
TTITLE6=Auto Outtake 6
TTITLE7=The Time Work Management Conundrum
TTITLE8=The Venomous Shrew Or Sweeping Sooterkins
TTITLE9=Auto Outtake 4
TTITLE10=A Formal Introduction To A Dead Relative
TTITLE11=Auto Outtake 7
TTITLE12=DT2 Version 8
TTITLE13=Crash
TTITLE14=Auto Outtake 3
TTITLE15=Black Room
TTITLE16=Iron Lung Glass Bones
TTITLE17=Moon Tags
TTITLE18=DT Volume 4
TTITLE19=Quizzical Looks From Behind Cook Books
TTITLE20=OZ193
TTITLE21=DT Volume 3
TTITLE22=Swamp Things Gonzo Mix
TTITLE23=In This Vegetable Glass Of Nature
TTITLE24=DT Volume 7
TTITLE25=Black Gumbo
TTITLE26=Some Women Do Not Love Their Children (Vorsprungdurchtechnikmix)
TTITLE27=Keith Tip Toes Across The Abyss Again Or Carpet Sickness
TTITLE28=Rumble Tum
EXTD=
EXTT0=
EXTT1=
EXTT2=
EXTT3=
EXTT4=
EXTT5=
EXTT6=
EXTT7=
EXTT8=
EXTT9=
EXTT10=
EXTT11=
EXTT12=
EXTT13=
EXTT14=
EXTT15=
EXTT16=
EXTT17=
EXTT18=
EXTT19=
EXTT20=
EXTT21=
EXTT22=
EXTT23=
EXTT24=
EXTT25=
EXTT26=
EXTT27=
EXTT28=
PLAYORDER=
